#!OML:ASF E:\Steps\Project 1\Capture day 1\Session 2\Subject.ASF
:FULLY-SPECIFIED
:DEGREES
124
root -0.916751 17.9716 20.9602 -154.416 -2.39353 177.834
lowerback -27.1304 -2.86389 -6.82154
upperback 0.254584 -1.95966 -0.120175
thorax 14.9963 -1.52228 2.81858
lowerneck 2.13831 -1.34191 -1.62349
upperneck 15.2101 -1.37679 6.19862
head 4.23981 0.00664588 2.16959
rclavicle 2.75317e-014 1.03368e-014
rhumerus -38.3866 -18.5728 -77.3958
rradius 32.7204
rwrist -0.305629
rhand -9.14946 -56.9662
rfingers 7.12502
rthumb 16.8026 -86.2591
lclavicle 2.75317e-014 1.03368e-014
lhumerus -30.112 6.5331 79.8696
lradius 21.9423
lwrist -4.70634
lhand -22.3104 -12.4448
lfingers 7.12502
lthumb 4.10901 17.4953
rfemur -23.0049 4.26552 20.1553
rtibia 5.59512
rfoot -17.2392 -2.60975
rtoes -14.9076
lfemur -23.7263 -8.962 -21.4844
ltibia 7.2961
lfoot -5.30469 -3.68352
ltoes -14.6188
125
root -0.917526 17.9716 20.9613 -154.439 -2.39771 177.798
lowerback -27.0701 -2.85443 -6.83576
upperback 0.230982 -1.94621 -0.15162
thorax 14.9368 -1.51527 2.79914
lowerneck 2.12827 -1.34239 -1.60688
upperneck 15.2673 -1.37534 6.2266
head 4.25883 0.0142115 2.17629
rclavicle -1.32192e-014 -2.5842e-014
rhumerus -38.3952 -18.5066 -77.451
rradius 32.7102
rwrist -0.360969
rhand -9.13283 -57.0185
rfingers 7.12502
rthumb 16.8186 -86.3101
lclavicle -1.32192e-014 -2.5842e-014
lhumerus -30.1268 6.49662 79.8508
lradius 21.9786
lwrist -4.72219
lhand -22.5472 -12.6711
lfingers 7.12502
lthumb 3.88035 17.2733
rfemur -22.9653 4.27338 20.1062
rtibia 5.5827
rfoot -17.3021 -2.6208
rtoes -15.1119
lfemur -23.7084 -8.94409 -21.5373
ltibia 7.31266
lfoot -5.34922 -3.69395
ltoes -14.6557
126
root -0.917861 17.9719 20.9609 -154.513 -2.46586 177.784
lowerback -27.0054 -2.86373 -6.82051
upperback 0.237737 -1.96384 -0.167172
thorax 14.9143 -1.52023 2.76923
lowerneck 2.18345 -1.31597 -1.64415
upperneck 15.249 -1.34188 6.29703
head 4.24307 0.0326437 2.20537
rclavicle 4.96962e-015 -9.54166e-015
rhumerus -38.4206 -18.4926 -77.4849
rradius 32.7358
rwrist -0.316957
rhand -9.10604 -56.8887
rfingers 7.12502
rthumb 16.8444 -86.1782
lclavicle 4.96962e-015 -9.54166e-015
lhumerus -30.0514 6.46741 79.8465
lradius 21.9558
lwrist -4.68655
lhand -22.7485 -12.9429
lfingers 7.12502
lthumb 3.68596 17.0049
rfemur -22.8416 4.2566 20.1017
rtibia 5.49996
rfoot -17.258 -2.66737
rtoes -15.0717
lfemur -23.6344 -8.9309 -21.5597
ltibia 7.33972
lfoot -5.44146 -3.75071
ltoes -14.8622
127
root -0.917636 17.9731 20.9615 -154.559 -2.55165 177.845
lowerback -27.0071 -2.85725 -6.74903
upperback 0.271903 -1.97415 -0.144688
thorax 14.956 -1.51991 2.75108
lowerneck 2.21281 -1.29549 -1.69768
upperneck 15.1764 -1.32264 6.3622
head 4.21564 0.0386033 2.23425
rclavicle -9.74045e-015 -1.74931e-014
rhumerus -38.3694 -18.4651 -77.5187
rradius 32.7844
rwrist -0.281301
rhand -9.03556 -56.728
rfingers 7.12502
rthumb 16.9122 -86.0117
lclavicle -9.74045e-015 -1.74931e-014
lhumerus -29.9874 6.24595 79.933
lradius 22.1026
lwrist -4.25641
lhand -22.5998 -12.8984
lfingers 7.12502
lthumb 3.8296 17.0469
rfemur -22.7902 4.23298 20.1978
rtibia 5.48845
rfoot -17.217 -2.74162
rtoes -15.5757
lfemur -23.6023 -8.89289 -21.4844
ltibia 7.35463
lfoot -5.44577 -3.84465
ltoes -14.994
128
root -0.916811 17.9731 20.9635 -154.555 -2.5998 177.915
lowerback -27.0274 -2.84135 -6.6913
upperback 0.285728 -1.97149 -0.10971
thorax 14.9823 -1.51553 2.7585
lowerneck 2.32535 -1.29813 -1.73747
upperneck 14.6293 -1.29517 6.26579
head 4.51117 0.0113946 2.44575
rclavicle 1.28216e-014 -1.31198e-014
rhumerus -38.3103 -18.4058 -77.55
rradius 32.8477
rwrist -0.212491
rhand -8.96447 -57.0882
rfingers 7.12502
rthumb 16.9806 -86.366
lclavicle 1.28216e-014 -1.31198e-014
lhumerus -29.9792 6.12615 80.0031
lradius 22.265
lwrist -4.02075
lhand -22.4646 -12.7199
lfingers 7.12502
lthumb 3.96014 17.223
rfemur -22.7971 4.31904 20.2716
rtibia 5.48445
rfoot -17.1933 -2.80368
rtoes -15.7933
lfemur -23.6232 -8.88856 -21.3834
ltibia 7.34391
lfoot -5.45726 -3.85063
ltoes -14.4844
129
root -0.917181 17.973 20.965 -154.56 -2.62989 177.891
lowerback -26.9999 -2.84554 -6.70433
upperback 0.274865 -1.97586 -0.111218
thorax 14.9569 -1.51784 2.7632
lowerneck 2.38672 -1.29679 -1.80487
upperneck 14.5118 -1.30806 6.38465
head 4.45989 0.00100635 2.49605
rclavicle 1.03368e-014 1.59028e-015
rhumerus -38.3182 -18.3672 -77.574
rradius 32.9001
rwrist -0.162882
rhand -8.96646 -57.1947
rfingers 7.12502
rthumb 16.9787 -86.4726
lclavicle 1.03368e-014 1.59028e-015
lhumerus -30.01 6.01806 80.0315
lradius 22.3608
lwrist -3.94505
lhand -22.5222 -12.8459
lfingers 7.12502
lthumb 3.90454 17.0981
rfemur -22.7752 4.43721 20.2104
rtibia 5.44789
rfoot -17.1994 -2.86736
rtoes -14.2748
lfemur -23.6335 -8.92539 -21.3943
ltibia 7.35051
lfoot -5.45936 -3.83533
ltoes -14.5794
130
root -0.917482 17.9731 20.9672 -154.571 -2.63021 177.846
lowerback -26.9681 -2.84984 -6.74602
upperback 0.2718 -1.96991 -0.118755
thorax 14.9379 -1.51753 2.78094
lowerneck 2.25656 -1.27456 -1.89919
upperneck 14.9513 -1.33249 6.64691
head 4.14178 0.0248826 2.35305
rclavicle -6.65929e-015 1.07344e-014
rhumerus -38.3234 -18.3516 -77.5746
rradius 32.9414
rwrist -0.085738
rhand -8.88397 -57.1342
rfingers 7.12502
rthumb 17.0581 -86.4052
lclavicle -6.65929e-015 1.07344e-014
lhumerus -29.9582 5.87033 80.0982
lradius 22.3869
lwrist -3.83593
lhand -22.7396 -13.254
lfingers 7.12502
lthumb 3.69458 16.6937
rfemur -22.775 4.50075 20.1315
rtibia 5.47345
rfoot -17.3002 -2.91983
rtoes -12.6757
lfemur -23.6466 -8.91955 -21.4492
ltibia 7.40954
lfoot -5.44481 -3.87489
ltoes -15.4365
131
root -0.917782 17.9727 20.9689 -154.577 -2.61452 177.87
lowerback -26.9652 -2.81912 -6.715
upperback 0.264159 -1.94008 -0.119334
thorax 14.9237 -1.50168 2.77516
lowerneck 2.1359 -1.28856 -1.91545
upperneck 15.1064 -1.34875 6.64778
head 4.20983 0.0248994 2.35725
rclavicle 1.2921e-014 3.1408e-014
rhumerus -38.3257 -18.348 -77.561
rradius 32.9334
rwrist -0.036711
rhand -8.84841 -57.1249
rfingers 7.12502
rthumb 17.0924 -86.393
lclavicle 1.2921e-014 3.1408e-014
lhumerus -29.8786 5.78023 80.146
lradius 22.4039
lwrist -3.79194
lhand -22.8397 -13.4329
lfingers 7.12502
lthumb 3.59786 16.5165
rfemur -22.7908 4.50793 20.1535
rtibia 5.51276
rfoot -17.367 -2.93824
rtoes -13.1105
lfemur -23.6428 -8.9031 -21.428
ltibia 7.42877
lfoot -5.4288 -3.87383
ltoes -15.3543
132
root -0.918986 17.972 20.9706 -154.533 -2.61953 177.873
lowerback -26.992 -2.8005 -6.69449
upperback 0.228533 -1.9259 -0.118766
thorax 14.8929 -1.49423 2.76932
lowerneck 2.1467 -1.27286 -1.93158
upperneck 15.1051 -1.32406 6.62594
head 4.20659 0.0350342 2.35394
rclavicle -8.15017e-015 -3.97569e-015
rhumerus -38.3499 -18.3164 -77.5545
rradius 32.9361
rwrist -0.0984765
rhand -8.91319 -56.5358
rfingers 7.12502
rthumb 17.03 -85.8093
lclavicle -8.15017e-015 -3.97569e-015
lhumerus -29.9225 5.65643 80.2012
lradius 22.5749
lwrist -3.6882
lhand -22.7785 -13.2342
lfingers 7.12502
lthumb 3.65699 16.7141
rfemur -22.8655 4.41904 20.1761
rtibia 5.55481
rfoot -17.3312 -2.94348
rtoes -14.3786
lfemur -23.6939 -8.88555 -21.43
ltibia 7.41394
lfoot -5.49897 -3.90037
ltoes -15.3034
133
root -0.921671 17.9732 20.9712 -154.542 -2.61893 177.84
lowerback -26.9889 -2.79916 -6.7192
upperback 0.22147 -1.91908 -0.105842
thorax 14.8836 -1.49328 2.79965
lowerneck 2.25217 -1.22352 -2.0117
upperneck 14.9158 -1.26218 6.61307
head 4.12908 0.048614 2.36288
rclavicle 2.11706e-014 2.10712e-014
rhumerus -38.379 -18.254 -77.5429
rradius 33.0498
rwrist -0.120119
rhand -8.96903 -56.1936
rfingers 7.12502
rthumb 16.9763 -85.4717
lclavicle 2.11706e-014 2.10712e-014
lhumerus -29.9604 5.67482 80.2822
lradius 22.7569
lwrist -3.62263
lhand -22.7907 -12.8221
lfingers 7.12502
lthumb 3.64519 17.1265
rfemur -22.8674 4.26894 20.1707
rtibia 5.60601
rfoot -17.3296 -2.84775
rtoes -14.5755
lfemur -23.692 -8.85381 -21.5025
ltibia 7.44247
lfoot -5.60855 -3.99054
ltoes -16.1954
134
root -0.923967 17.9725 20.9737 -154.486 -2.63895 177.818
lowerback -27.0479 -2.77557 -6.73771
upperback 0.194217 -1.8823 -0.111736
thorax 14.8763 -1.47909 2.81551
lowerneck 2.4091 -1.23983 -1.95004
upperneck 14.4314 -1.23371 6.39169
head 4.42447 0.0254741 2.525
rclavicle 4.87022e-015 -1.39149e-014
rhumerus -38.4614 -18.2497 -77.5205
rradius 33.1996
rwrist -0.169121
rhand -8.98148 -56.2819
rfingers 7.12502
rthumb 16.9643 -85.5611
lclavicle 4.87022e-015 -1.39149e-014
lhumerus -29.9314 5.68219 80.3457
lradius 22.8548
lwrist -3.60067
lhand -22.7613 -12.6984
lfingers 7.12502
lthumb 3.67364 17.2497
rfemur -22.959 4.16239 20.1574
rtibia 5.65561
rfoot -17.4153 -2.75836
rtoes -14.3582
lfemur -23.8105 -8.88498 -21.526
ltibia 7.53467
lfoot -5.56584 -4.01288
ltoes -17.1291
135
root -0.924989 17.9729 20.9742 -154.519 -2.64276 177.81
lowerback -27.0313 -2.70519 -6.7249
upperback 0.18258 -1.78854 -0.174472
thorax 14.8419 -1.434 2.77662
lowerneck 2.49068 -1.28908 -1.7833
upperneck 14.4177 -1.29149 6.38483
head 4.40385 0.00837497 2.48954
rclavicle -5.96354e-015 -2.06736e-014
rhumerus -38.607 -18.3592 -77.5184
rradius 33.327
rwrist -0.248728
rhand -8.93262 -56.2035
rfingers 7.12502
rthumb 17.0113 -85.4787
lclavicle -5.96354e-015 -2.06736e-014
lhumerus -29.9012 5.39142 80.3921
lradius 22.9847
lwrist -3.40783
lhand -22.6291 -13.0002
lfingers 7.12502
lthumb 3.80132 16.9456
rfemur -22.9218 4.13799 20.1495
rtibia 5.61495
rfoot -17.4033 -2.70567
rtoes -14.496
lfemur -23.7799 -8.93573 -21.5328
ltibia 7.54168
lfoot -5.49858 -3.94906
ltoes -17.4019
